# xmcd CD database file
#
# Track frame offsets:
#	150
#	7437
#	27017
#	39065
#	49107
#	57912
#	78252
#	90417
#	99270
#	109657
#	127930
#	142452
#	156560
#	167397
#	185652
#
# Disc length: 2630 seconds
#
# Revision: 0
# Processed by: cddbd v1.4PL0 Copyright (c) Steve Scherf et al.
# Submitted via: CDex 1.40Release
#
DISCID=bc0a440f
DTITLE=Assorted - LETTIN' 'ER RIP FOR THE CHEROKEE STRIP
DYEAR=1900
DGENRE=Country
TTITLE0=LETTIN' 'ER RIP FOR THE CHEROKEE STRIP
TTITLE1=Oklahoma Towns
TTITLE2=Back In The Saddle
TTITLE3=Oklahoma Hills
TTITLE4=Cherokee Maiden
TTITLE5=Oklahoma Lullaby
TTITLE6=My Desperado
TTITLE7=Take Me Back To Tulsa
TTITLE8=The Run Of The Cherokee Outlet
TTITLE9=Home On The Range
TTITLE10=The Run
TTITLE11=I Glue You Music
TTITLE12=North Of Kansas
TTITLE13=Still A Cherokee
TTITLE14=The Watering Hole
EXTD=ID3G: 2
EXTT0=
EXTT1=
EXTT2=
EXTT3=
EXTT4=
EXTT5=
EXTT6=
EXTT7=
EXTT8=
EXTT9=
EXTT10=
EXTT11=
EXTT12=
EXTT13=
EXTT14=
PLAYORDER=
